<svg xmlns="http://www.w3.org/2000/svg" viewBox="0 0 295.91 287.42"><defs><style>.cls-1{fill-rule:evenodd;}</style></defs><g id="Camada_2" data-name="Camada 2"><g id="Camada_1-2" data-name="Camada 1"><path class="cls-1" d="M294.91,88.58c-1.68-5.89-4.49-10.23-8.59-13.25l0,0a37.6,37.6,0,0,0-9.85-4.74A45.17,45.17,0,0,1,268.29,67h0c-6.26-3.78-10-6.25-12.48-7.89-5.5-3.63-6.43-4.11-12.4-4.53-3-.21-8-.56-17.74-2.06-1.37-.21-1.4-.23-2.81-1.66a36.71,36.71,0,0,0-10.75-7.7,30.43,30.43,0,0,0-16.39-3.37c-3.7.28-6.58,1.71-11.34,4.08L181,45.52c.21-2.77.39-5.81.52-8.24,3.33-8.47,3-11.29-1.56-17.71-.8-1.13-1.71-2.41-2.76-4.07A15.47,15.47,0,0,0,165.1,6.36a16.66,16.66,0,0,0-15.44,5.47c-7,5.22-24.9,11.45-34.16,9.3a7.54,7.54,0,0,1-2.43-.93c.53-1.65,1.05-3.3,1.58-5a5.65,5.65,0,0,0,.28-1.69C115,7.92,113.07,4,109.15,1.94c-3-1.58-6.46-1.7-10.47-1.82l-2-.07C87.07-.34,74,1.61,68.92,8.4a10.67,10.67,0,0,0-1.59,10,5.78,5.78,0,0,0,1,1.85l2,2.43a77.29,77.29,0,0,1-8.15,4.75l-.81.42c-3.61-2.08-7.78-4.45-8.45-4.79-.17-.08-.34-.16-.51-.22-10-3.84-19-1.58-24.21,6s-5,18.8.12,26.57c-.79,4-1.64,8.11-2.29,11-8.27-.07-14.22,1.15-18.11,3.76C5.34,72,3.85,75,3.39,79.41a40.66,40.66,0,0,0,.18,8.47A26.33,26.33,0,0,0,0,100.51c0,8.43,4.27,14.95,12.36,18.86,3.26,1.67,7.38.44,15.44-2.21l1.94-.63c7.29,9.68,20.86,7.9,27.79,5.21,1.13-.41,2.36-.81,3.49-1.15,1.45,5.75,3.94,14.35,10.83,17.19,2,.85,13.91,5.5,15,5.92,2.84,1.1,4.86,1.73,6.34,2.19a23.3,23.3,0,0,1,2.78,1,9.39,9.39,0,0,1,2.85,1.7c0,.34-.14.9-.22,1.3-.43,2.21-1.15,5.9,1.4,9.59,2.13,3.08,6,5.27,12.49,7.08l2.17.72a23.15,23.15,0,0,1,.72,3.79,83.81,83.81,0,0,1,0,17,6,6,0,0,0-.12,2c.2,1.75.42,3.73,14.15,26.14,4.12,6.72,8.25,13.3,10.73,17.23-4.53,5.66-11,15.11-13.51,18.8a14.77,14.77,0,0,0,6.75,21.93c2.83,1.13,5.77,2.25,8.13,3.16,1.31.49,2.75,1,3.56,1.37.25.23.55.52.81.79,4.85,4.78,8.38,8,12.24,7.95h.45a6.49,6.49,0,0,0,4.76-2.49,4.15,4.15,0,0,0,.24-.34l9.55-14.1,4.46-5.33,5.5-6.59a3.68,3.68,0,0,0,.3-.39l1-1.35c6.19-8.82,6.58-9.89,7-19.19,0-.55,0-1.14.07-1.77,5.53-5.43,11.35-11,12.73-12.14a40.53,40.53,0,0,1,19-6.13c5-.53,10.26-1.08,15.69-5.89,5-4.48,9.74-12.15,15.68-25.64.77-1.77,2.22-5.62,4.29-11.43.28-.78.55-1.61.86-2.59h0a61.86,61.86,0,0,0,2.57-13.63c.19-2.61.23-3.53.27-4.14s0-.79.34-3.8a119.5,119.5,0,0,1,9.07-13.68l8.46-11a1,1,0,0,0,.08-.11c.82-1.12,1.65-2.23,2.47-3.34,6.4-8.61,13-17.51,13-27.62A22.66,22.66,0,0,0,294.91,88.58Zm-21.28,26.78c-.83,1.11-1.66,2.23-2.49,3.37l-8.4,10.94c-.07.09-4.34,5.72-7.62,11l-.74,3a118.87,118.87,0,0,1-4.31,18.69c-.13.71-.26,1.42-.41,2.12h-.3l-.17.48a53.22,53.22,0,0,1-5.42,11.14h2.16c-1.2,3.24-1.77,4.63-2,5.23-5.07,11.54-9.13,18.41-12.75,21.63-2.55,2.25-4.67,2.56-9.23,3a51.74,51.74,0,0,0-24,7.85c-.59.35-2,1.19-16.27,15.27A5.8,5.8,0,0,0,180,233c-.08,1.6-.14,3-.18,4.16-.15,3.68-.23,5.22-.63,6.33-.48,1.29-1.81,3.18-4.23,6.62l-.81,1.17-5.35,6.39-4.65,5.56a4.1,4.1,0,0,0-.35.47l-6.9,10.19c-1.15-1-2.3-2.18-2.86-2.73a15.84,15.84,0,0,0-2.78-2.43c-.68-.42-1.27-.65-5.57-2.29-2.33-.89-5.23-2-8-3.09a3.13,3.13,0,0,1-1.43-4.64c6.46-9.66,13.4-18.95,15-20.48a5.84,5.84,0,0,0,.94-7.4c-11-17.26-22.95-36.9-25.27-42a95.07,95.07,0,0,0,.35-12.72h.32c-.72-4.79-1.52-9.72-2.25-13.19-1-2.85-2.73-5.28-5.65-6.25l-3.79-1.25-.27-.08c-3.75-1-5.32-1.91-5.91-2.33,0-.28.11-.63.17-.92.8-4.1.81-8.63-3.8-12.55L97.18,135l-.6-.18c-1.46-.46-3.13-1-5.59-1.94-3.57-1.37-13.5-5.27-14.55-5.73l-.19-.08c-.76-.31-1.57-1.68-2.43-4.05l-1.14-.58a12.76,12.76,0,0,0,.1-2.63v0h0c-.24-4.09-2.5-11.11-15.67-8-6.37,1.52-10.18,1.31-12.45.41-2.77-.27-5.45-1.44-6.78-4.58a5.83,5.83,0,0,0-3.41-3.21c-2.43-.85-4.56-.15-10.26,1.72-2.15.71-5.91,2-7.75,2.31-4.29-2.4-4.9-5.32-4.9-7.91a15.45,15.45,0,0,1,2.49-7.64,5.84,5.84,0,0,0,1.16-5.25c-.06-.29-.16-1-.24-1.8h6.45l-.65-.67S29.89,84,36.46,72.57c.68-2.49,1.77-7.35,3.73-17.44a5.85,5.85,0,0,0-1.38-5C35.47,46.4,35,39.56,37.76,35.47c2-3,5.47-3.61,10.22-1.87,1.34.74,6.76,3.85,10.49,6a5.76,5.76,0,0,0,6-.12c.6-.38,1.82-1,3.12-1.7,7.86-4.12,14-7.7,15.27-13a8,8,0,0,0-1.22-6.58c-.09-.13-.18-.26-.28-.38l-2.49-3c2.17-1.51,8.69-3.46,17.44-3.11l2,.07a39,39,0,0,1,5,.36,4.82,4.82,0,0,1,0,.52l-2.17,6.76-.08.24a5.87,5.87,0,0,0,.29,4.3c1.45,3,4.61,7,11.51,8.56,13.77,3.17,35.85-5.06,44.42-11.91a5.53,5.53,0,0,0,1-1,5.23,5.23,0,0,1,5-1.68A4,4,0,0,1,166.56,20a6.06,6.06,0,0,0,.56,1.18c1.37,2.19,2.52,3.81,3.45,5.11a22.83,22.83,0,0,1,1.6,2.43,25.35,25.35,0,0,1-1.72,5.09,5.7,5.7,0,0,0-.41,1.87c-.3,5.72-.79,12.72-1.06,14a6.58,6.58,0,0,0,1.64,6.16c.91.94,3.34,3.45,11.9,1.59a6,6,0,0,0,1.26-.42c2.28-1.09,4.2-2,5.73-2.81,4-2,5.67-2.8,7.08-2.9a18.58,18.58,0,0,1,10.34,2.16,25.46,25.46,0,0,1,7.75,5.52A14.57,14.57,0,0,0,223.92,64c10.2,1.57,15.51,1.94,18.69,2.17a15.5,15.5,0,0,1,3.11.35,29.1,29.1,0,0,1,3.74,2.29l1.54,1c6.28,2.25,26.87,10,29.34,15.33.1.22.18.45.27.67h.15a14,14,0,0,1,3,6,11.66,11.66,0,0,1,.55,2.91C284.35,101,279.14,108,273.63,115.36Z"/></g></g></svg>