<svg xmlns="http://www.w3.org/2000/svg" viewBox="0 0 36.5 26.5"><g id="Camada_2" data-name="Camada 2"><g id="Camada_1-2" data-name="Camada 1"><path d="M35,17.5H33.5v-3a4,4,0,0,0-8,0v3H25A1.5,1.5,0,0,0,23.5,19v7.5h13V19A1.5,1.5,0,0,0,35,17.5Zm-8.5-3a3,3,0,0,1,6,0v3h-6Zm9,11h-11V19a.5.5,0,0,1,.5-.5H35a.5.5,0,0,1,.5.5Z"/><rect x="5.23" y="9.5" width="11.5" height="1"/><rect x="5.23" y="13.5" width="11.5" height="1"/><rect x="5.23" y="16.5" width="4.79" height="1"/><path d="M1,19.5V7.5H33.54v2h1v-7A2.45,2.45,0,0,0,32.14,0H2.4A2.45,2.45,0,0,0,0,2.5H0v17A2.45,2.45,0,0,0,2.4,22H20.5V21H2.4A1.46,1.46,0,0,1,1,19.5Zm0-17A1.46,1.46,0,0,1,2.4,1H32.1a1.47,1.47,0,0,1,1.44,1.5h0v4H1Z"/></g></g></svg>