<svg xmlns="http://www.w3.org/2000/svg" viewBox="0 0 192.43 144.33"><g id="Camada_2" data-name="Camada 2"><g id="Camada_1-2" data-name="Camada 1"><path d="M139.68,125.74a16,16,0,0,0,9.11-2.83,16.23,16.23,0,0,0,22.66-4.43,16.65,16.65,0,0,0-4.38-22.93,16.12,16.12,0,0,0-18.28,0,16,16,0,0,0-9.11-2.83,16.51,16.51,0,0,0,0,33Zm0-23.84a7.2,7.2,0,0,1,5.59,2.69,4.5,4.5,0,0,0,6.37.69,4.92,4.92,0,0,0,.67-.69,7.17,7.17,0,0,1,10.2-.91,7.37,7.37,0,0,1,.9,10.32,7.15,7.15,0,0,1-10.19.91,5.69,5.69,0,0,1-.95-1,4.31,4.31,0,0,0-3.48-1.6,4.44,4.44,0,0,0-3.47,1.64,7.06,7.06,0,0,1-5.6,2.65,7.35,7.35,0,0,1-7.31-7.35A7.26,7.26,0,0,1,139.68,101.9Zm52.57-45.08c0-.41.18-.87.18-1.33s-.18-.87-.18-1.28V44.44a19.32,19.32,0,0,0-19.31-19.32h-5.51V19.59C167.43,8.86,159,0,148.39,0H19.13A19.4,19.4,0,0,0,0,19.59v80.3a19.16,19.16,0,0,0,19,19.32h5.37v5.52a19.53,19.53,0,0,0,19.27,19.6h129.3a19.58,19.58,0,0,0,19.31-19.6V78.24c0-.41.18-.87.18-1.28s-.18-.87-.18-1.28ZM24.37,44.44v65.63H19.13a10.06,10.06,0,0,1-10.1-10V19.59A10.32,10.32,0,0,1,19.13,9.13h129.3a10.25,10.25,0,0,1,10,10.46v5.53H43.64A19.28,19.28,0,0,0,24.37,44.44Zm158.86,80.29a10.45,10.45,0,0,1-10.29,10.46H43.64A10.37,10.37,0,0,1,33.4,124.73V81.3H183.23Zm0-52.57H33.4V60.29H183.23Zm0-21H33.4V44.44A10.2,10.2,0,0,1,43.64,34.25H173a10.22,10.22,0,0,1,10.29,10.19Z"/></g></g></svg>