<svg xmlns="http://www.w3.org/2000/svg" viewBox="0 0 22.96 21.99"><g id="Camada_2" data-name="Camada 2"><g id="Camada_1-2" data-name="Camada 1"><path d="M18.18,16A3,3,0,1,0,21,19,2.94,2.94,0,0,0,18.18,16Zm0,4.2A1.2,1.2,0,1,1,19.32,19,1.18,1.18,0,0,1,18.18,20.2Zm4.6-15.78a.87.87,0,0,0-.68-.35H5.3L4.53.69A.87.87,0,0,0,3.69,0H.86A.88.88,0,0,0,0,.9a.88.88,0,0,0,.86.9H3L5.81,14a.85.85,0,0,0,.83.69H20a.85.85,0,0,0,.83-.68l2.09-8.84A.92.92,0,0,0,22.78,4.42Zm-3.44,8.49h-12l-1.61-7H21ZM7.79,16a3,3,0,0,0,0,6,3,3,0,0,0,0-6Zm0,4.2A1.2,1.2,0,1,1,8.93,19,1.18,1.18,0,0,1,7.79,20.2Z"/></g></g></svg>