<svg xmlns="http://www.w3.org/2000/svg" viewBox="0 0 25 25.03"><defs><style>.cls-1{fill-rule:evenodd;}</style></defs><g id="Camada_2" data-name="Camada 2"><g id="Camada_1-2" data-name="Camada 1"><path class="cls-1" d="M24.72,11.05,23.9,9.51a12.59,12.59,0,0,1-1.22-2.94L22.17,4.9a3.9,3.9,0,0,0-2.06-2.07l-1.67-.51A12.42,12.42,0,0,1,15.5,1.1L14,.28A4,4,0,0,0,11,.28L9.5,1.1A12.42,12.42,0,0,1,6.56,2.32l-1.67.51A3.9,3.9,0,0,0,2.83,4.9L2.32,6.57A12.59,12.59,0,0,1,1.1,9.51L.28,11.05A3.62,3.62,0,0,0,0,12.49v0A3.56,3.56,0,0,0,.28,14l.82,1.54a12.67,12.67,0,0,1,1.22,3l.51,1.67A4,4,0,0,0,4.89,22.2l1.67.5A12.42,12.42,0,0,1,9.5,23.92l1.54.82a3.88,3.88,0,0,0,2.92,0l1.54-.82a12.42,12.42,0,0,1,2.94-1.22l1.67-.5a4,4,0,0,0,2.06-2.07l.51-1.67a12.67,12.67,0,0,1,1.22-3L24.72,14A3.47,3.47,0,0,0,25,12.52h0A3.52,3.52,0,0,0,24.72,11.05ZM11.47,17.51,6,12l2.05-1.94,3.42,3.23,5.14-5.81L19,9.45Z"/></g></g></svg>