<svg xmlns="http://www.w3.org/2000/svg" viewBox="0 0 255.15 238.99"><g id="Camada_2" data-name="Camada 2"><g id="Camada_1-2" data-name="Camada 1"><path d="M62.91,239c-1-2.48-2.69-4.91-2.86-7.44a172,172,0,0,1,0-19.4c.17-3.65-.89-5.63-4.32-7.19-7.54-3.42-15-7-22.2-11.17C12.14,181.4.79,162.66.26,138-.22,115.44.09,92.87.18,70.3.22,58.6,8.87,49.8,20,49.79S39.87,58.54,40,70.25c.1,12.92,0,25.84,0,39.11,7.74.32,13.34,4.31,17.87,9.81,10.22,12.42,23.12,19,39.26,20.74,14.43,1.56,25.23,14.65,25.44,29.42.3,21.07.19,42.15,0,63.21,0,2.16-1.86,4.3-2.86,6.45Zm7-10.32h42.83c0-19.41.07-38.47,0-57.53-.06-12.12-7.34-20.29-19.37-21.84-15.12-1.94-28.57-7-38.62-19.19a63.44,63.44,0,0,0-8.53-8.34,9.51,9.51,0,0,0-13.1.61,9.68,9.68,0,0,0-.86,13.11,35.12,35.12,0,0,0,3.38,3.64q11.07,11.1,22.16,22.17c2.28,2.28,3.22,4.87.78,7.43-2.57,2.71-5.35,2.05-7.82-.41-8.45-8.45-17.09-16.71-25.25-25.41s-6.92-21,1.77-28.85a8.81,8.81,0,0,0,2.69-5.66c.24-12.27.12-24.55.12-36.82,0-.17,0-.33,0-.5C29.9,64.27,26,59.8,20.11,59.77s-10,4.46-10,11.23c-.05,21.4,0,42.79,0,64.19q0,35.79,31.94,51.95c7.68,3.9,15.37,7.79,23.15,11.5,3.43,1.64,4.85,4,4.74,7.83C69.72,213.75,69.88,221,69.88,228.67Z"/><path d="M255.15,145.38c-2.25,6.87-4.41,13.77-6.8,20.6-1.21,3.47-3.55,6.08-7.52,4.18s-3-5.3-1.39-8.52a56.81,56.81,0,0,0,5.78-26c-.08-21.56,0-43.13-.05-64.7,0-6.76-4.15-11.25-10-11.21s-9.76,4.51-9.89,11.35v.49c0,12.28-.12,24.56.13,36.83a8.71,8.71,0,0,0,2.72,5.65c8.52,7.69,9.8,20,2,28.48-8.21,8.89-17,17.23-25.58,25.8-2.29,2.29-5,3-7.48.66-2.78-2.62-1.91-5.34.55-7.78,7.74-7.74,15.56-15.42,23.17-23.29a16.45,16.45,0,0,0,4.15-6.59c1.14-4.24-.64-7.86-4.35-10.25a9.09,9.09,0,0,0-11.53.71,61.78,61.78,0,0,0-8.16,8c-10.28,12.46-24,17.68-39.52,19.53-10.29,1.23-18.28,8.75-18.54,18.92-.5,20-.15,40.08-.15,60.43h42.74c0-7.41.17-14.67-.07-21.91-.13-4,1.2-6.56,4.9-8.24,5.27-2.39,10.42-5.1,15.59-7.71,3.22-1.63,6.32-1.88,8,1.8,1.6,3.41-.48,5.63-3.51,7.08l-.89.43c-4.55,2.37-10.91,3.66-13.15,7.41-2.36,3.95-.82,10.24-.93,15.51-.06,2.82.38,5.71-.12,8.44s-1.88,5-2.88,7.46H135.62c-1-2.48-2.83-5-2.85-7.44-.24-20.07-.2-40.15-.11-60.23.07-17.19,10.82-29.58,28-31.89,13.29-1.79,24.79-6.42,33.72-17,5.29-6.29,10.95-12.78,20.95-12.89V85.16c0-4.81,0-9.62,0-14.43.09-10.73,6.55-18.8,16.49-20.68,9.45-1.78,18.53,3.68,22.33,13.42.3.76.67,1.49,1,2.24Z"/><path d="M122.34,59.76C104.09,52.88,95.4,40,98.16,25c2.71-14.75,15-25.11,29.72-25s26.87,10.71,29.34,25.48-6.28,27.6-24.14,34.2c1.82.48,3,.84,4.2,1.1a44.92,44.92,0,0,1,35.1,41.79c.24,6.79,0,13.6.11,20.4.06,4.65-2.22,6.51-6.74,6.5q-38.08-.09-76.17,0c-3.58,0-6.58-1-6.64-5-.13-8.61-.68-17.35.46-25.83,2.69-20,16.29-33.84,36.08-38.08C120.11,60.45,120.72,60.23,122.34,59.76Zm40.08,59.65c0-6.17.34-12-.06-17.67-1.24-17.67-16.29-32-34-31.95-24.64.13-40.33,20.27-34.77,49.62Zm-54.67-90A19.91,19.91,0,1,0,128.07,10,20,20,0,0,0,107.75,29.44Z"/><path d="M227.88,188.89c-1.32-1.77-3.37-3.39-3.78-5.35-.62-3,1.51-5.5,4.51-5,1.84.29,4.49,2.71,4.65,4.38.19,1.87-2,4-3.2,6Z"/></g></g></svg>