<svg xmlns="http://www.w3.org/2000/svg" viewBox="0 0 10 6"><defs><style>.cls-1{fill-rule:evenodd;}</style></defs><g id="Camada_2" data-name="Camada 2"><g id="Camada_1-2" data-name="Camada 1"><path class="cls-1" d="M10,1.18A.73.73,0,0,0,9.76.76L9.39.32C9.26.17,9.08,0,8.82.11a1.22,1.22,0,0,0-.3.26C7.69,1.23,6.89,2,6.06,2.88c-.14.14-.29.32-.45.45a.8.8,0,0,1-.65.2,1.14,1.14,0,0,1-.57-.31c-.16-.14-.31-.3-.46-.45C3.09,1.92,2.29,1.13,1.46.28,1.34.15,1.26,0,1.05,0H1C.71.05.59.29.42.48A1.35,1.35,0,0,0,0,1.1v.08a.8.8,0,0,0,.32.49L.6,2C1.82,3.19,3,4.39,4.25,5.63c.15.15.27.33.49.37h.62c.23,0,.32-.17.47-.32l.27-.29C7.29,4.17,8.48,3,9.68,1.75c.15-.15.29-.24.31-.48h0Z"/></g></g></svg>