<svg xmlns="http://www.w3.org/2000/svg" viewBox="0 0 86 51"><g id="Camada_2" data-name="Camada 2"><g id="Camada_1-2" data-name="Camada 1"><path d="M31.27,35.31a1.84,1.84,0,0,0-1.95-2H13.68a2,2,0,0,0,0,3.92H29.32A1.85,1.85,0,0,0,31.27,35.31ZM25.41,25.5a1.85,1.85,0,0,0-2-2H7.82a2,2,0,1,0,0,3.92H23.45A1.85,1.85,0,0,0,25.41,25.5Zm-5.86-9.81a1.86,1.86,0,0,0-2-2H2a1.84,1.84,0,0,0-1.95,2,1.84,1.84,0,0,0,2,2H17.59A1.85,1.85,0,0,0,19.55,15.69Zm55.5-7.45L54.34,24.13a6.15,6.15,0,0,1-7.24,0L26.39,8.24A2,2,0,0,0,24,11.38L45,27.27a9.62,9.62,0,0,0,5.87,2,9.21,9.21,0,0,0,5.86-2L77.4,11.38a2.12,2.12,0,0,0,.39-2.75A2.1,2.1,0,0,0,75.05,8.24ZM80.14,0H17.59a1.84,1.84,0,0,0-1.95,2,1.84,1.84,0,0,0,1.95,2H80.14a1.85,1.85,0,0,1,2,2V45.11a1.85,1.85,0,0,1-2,2H17.59a2,2,0,0,0,0,3.92H80.14A5.77,5.77,0,0,0,86,45.11V5.88A5.77,5.77,0,0,0,80.14,0ZM65.87,28.05a1.88,1.88,0,0,0-2.74,0,1.91,1.91,0,0,0,0,2.75L74.86,42.56a1.89,1.89,0,0,0,2.74,0,1.9,1.9,0,0,0,0-2.74Z"/></g></g></svg>