<svg xmlns="http://www.w3.org/2000/svg" viewBox="0 0 12.27 10.93"><defs><style>.cls-1{fill-rule:evenodd;}</style></defs><g id="Camada_2" data-name="Camada 2"><g id="Camada_1-2" data-name="Camada 1"><path class="cls-1" d="M12.12,2.33A3.24,3.24,0,0,0,8.54,0a3.93,3.93,0,0,0-2.4,1.45A3.62,3.62,0,0,0,3.18,0a3.21,3.21,0,0,0-3,2.14,4.45,4.45,0,0,0,.68,4C2.1,7.8,4,8.87,5.43,10.39c.22.24.43.54.73.54s.61-.45.84-.69.53-.52.76-.72C9.34,8.13,11.28,7,12,4.9A4.35,4.35,0,0,0,12.12,2.33Zm-1,1.55A4.25,4.25,0,0,1,9.87,6.19C8.64,7.43,7.27,8.38,6.12,9.6,4.93,8.15,2.93,7.05,1.8,5.43a3.16,3.16,0,0,1-.69-2.14A2.17,2.17,0,0,1,3.34,1.13a2.36,2.36,0,0,1,1.58.71,7.63,7.63,0,0,1,.57.57c.18.2.35.47.65.48s.46-.29.64-.48a5.51,5.51,0,0,1,.56-.54,2.58,2.58,0,0,1,1.47-.74,2.64,2.64,0,0,1,1.26.28A2.3,2.3,0,0,1,11.16,3.88Z"/></g></g></svg>