<svg xmlns="http://www.w3.org/2000/svg" viewBox="0 0 10.98 10.93"><defs><style>.cls-1{fill-rule:evenodd;}</style></defs><g id="Camada_2" data-name="Camada 2"><g id="Camada_1-2" data-name="Camada 1"><path class="cls-1" d="M3.66,2.72c1.28-.09,2.81.07,4.27,0V4.16c.66-.59,1.33-1.4,2-2.05C9.32,1.38,8.63.71,8,0c0,0,0,0,0,0a13.11,13.11,0,0,1,0,1.41c-1.5.06-2.94-.08-4.23,0A3.84,3.84,0,0,0,1.11,2.64,4.26,4.26,0,0,0,.3,7a9.44,9.44,0,0,0,1-1A2.69,2.69,0,0,1,3.66,2.72Zm7,1.25s0,0,0,0c-.18.24-.92.84-1,1s.05.31.05.45A2.67,2.67,0,0,1,7.3,8.24c-1.24.09-2.81-.05-4.25,0V6.81a28.92,28.92,0,0,0-2,2.1l1.78,1.83c.06.06.12.21.23.18a12.89,12.89,0,0,1,0-1.4c1.5-.06,2.94.07,4.23,0a3.9,3.9,0,0,0,2.57-1.2A4.2,4.2,0,0,0,10.68,4Z"/></g></g></svg>