<svg xmlns="http://www.w3.org/2000/svg" viewBox="0 0 35 38.99"><g id="Camada_2" data-name="Camada 2"><g id="Camada_1-2" data-name="Camada 1"><path d="M17.5,39a4.45,4.45,0,0,1-2.21-.58L2.21,30.86A4.42,4.42,0,0,1,0,27V12A4.43,4.43,0,0,1,2.21,8.13L15.29.59a4.42,4.42,0,0,1,4.42,0L32.79,8.13A4.43,4.43,0,0,1,35,12V27a4.42,4.42,0,0,1-2.21,3.82L19.71,38.41A4.45,4.45,0,0,1,17.5,39Zm0-37a2.46,2.46,0,0,0-1.21.32L3.21,9.86A2.42,2.42,0,0,0,2,12V27a2.41,2.41,0,0,0,1.21,2.09l13.08,7.54a2.43,2.43,0,0,0,2.42,0l13.08-7.54A2.41,2.41,0,0,0,33,27V12a2.42,2.42,0,0,0-1.21-2.09L18.71,2.32A2.46,2.46,0,0,0,17.5,2Z"/><path d="M8.13,9.33h.16a2.58,2.58,0,0,1,.88.35c2.5,1.43,5,2.87,7.5,4.29a1.6,1.6,0,0,0,1.66,0l7.25-4.16a3.09,3.09,0,0,1,1.13-.49h.15A3.05,3.05,0,0,1,28,9.84l.42.25.71.44a1.27,1.27,0,0,1,.67,1.19q0,3.58,0,7.16c0,2.3,0,4.6,0,6.9a1.06,1.06,0,0,1-.6,1l-5.08,2.8-.1.05v-12l-.11.06-.6.35c-1.44.83-2.9,1.65-4.31,2.54a2.84,2.84,0,0,1-2.38.29,4.46,4.46,0,0,1-1-.52c-1.51-.9-3-1.78-4.56-2.68l-.09,0v12l-.33-.18L5.75,26.79A.93.93,0,0,1,5.21,26a4.13,4.13,0,0,1,0-.5c0-2.32,0-4.64,0-7s0-4.59,0-6.88a1.28,1.28,0,0,1,.64-1.15L7,9.85A3,3,0,0,1,8.13,9.33Z"/></g></g></svg>