<svg xmlns="http://www.w3.org/2000/svg" viewBox="0 0 19 19.06"><g id="Camada_2" data-name="Camada 2"><g id="Camada_1-2" data-name="Camada 1"><path d="M13.2.75A9.54,9.54,0,1,0,19,9.53,9.52,9.52,0,0,0,13.2.75ZM9.06,12.44H8.31V8.14L6.4,12.44H5.86L3.94,8.13v4.31H3.19V6.68H4l2.13,4.76L8.26,6.68h.8Zm6.75-2.55A2.8,2.8,0,0,1,13,12.49a2.85,2.85,0,0,1-2.91-3,2.86,2.86,0,0,1,2.91-3,2.74,2.74,0,0,1,2.67,1.75h-.91A1.84,1.84,0,0,0,13,7.25a2.11,2.11,0,0,0-2.14,2.29A2.11,2.11,0,0,0,13,11.81a2,2,0,0,0,2-1.88H12.7V9.31h3.11Z"/></g></g></svg>