<svg xmlns="http://www.w3.org/2000/svg" viewBox="0 0 17 18.02"><g id="Camada_2" data-name="Camada 2"><g id="Camada_1-2" data-name="Camada 1"><path d="M16.18,9.25a.55.55,0,0,1,0-.47l.66-1.38a1.56,1.56,0,0,0-.66-2.07l-1.33-.72a.53.53,0,0,1-.27-.38l-.26-1.51a1.54,1.54,0,0,0-1.74-1.28l-1.49.21a.49.49,0,0,1-.43-.14L9.57.44a1.51,1.51,0,0,0-2.14,0L6.34,1.51a.49.49,0,0,1-.43.14L4.42,1.44A1.54,1.54,0,0,0,2.68,2.72L2.42,4.23a.56.56,0,0,1-.27.38L.82,5.33A1.56,1.56,0,0,0,.16,7.4L.82,8.78a.55.55,0,0,1,0,.47L.16,10.62A1.58,1.58,0,0,0,.82,12.7l1.33.72a.52.52,0,0,1,.27.37l.26,1.51A1.54,1.54,0,0,0,4.2,16.6h.22l1.49-.22a.49.49,0,0,1,.43.15l1.09,1.06a1.52,1.52,0,0,0,2.14,0l1.09-1.06a.49.49,0,0,1,.43-.15l1.49.22a1.56,1.56,0,0,0,1.74-1.29l.26-1.51a.49.49,0,0,1,.27-.37l1.33-.72a1.58,1.58,0,0,0,.66-2.08Zm-.92.45.66,1.38a.53.53,0,0,1-.22.7l-1.33.72a1.56,1.56,0,0,0-.8,1.11l-.26,1.51a.52.52,0,0,1-.59.44l-1.49-.22a1.52,1.52,0,0,0-1.29.43L8.86,16.83a.51.51,0,0,1-.72,0L7.06,15.77A1.53,1.53,0,0,0,6,15.33H5.77l-1.49.22a.52.52,0,0,1-.59-.44l-.26-1.51a1.59,1.59,0,0,0-.8-1.11L1.3,11.78a.53.53,0,0,1-.22-.7L1.74,9.7a1.59,1.59,0,0,0,0-1.38L1.08,7a.54.54,0,0,1,.22-.71l1.33-.71a1.6,1.6,0,0,0,.8-1.12L3.69,2.9a.52.52,0,0,1,.59-.43l1.49.21a1.52,1.52,0,0,0,1.29-.42L8.14,1.19a.51.51,0,0,1,.72,0L9.94,2.26a1.52,1.52,0,0,0,1.29.42l1.49-.21a.52.52,0,0,1,.59.43l.26,1.51a1.58,1.58,0,0,0,.8,1.12l1.33.71a.54.54,0,0,1,.22.71l-.66,1.37A1.59,1.59,0,0,0,15.26,9.7Zm-3-4.49a.51.51,0,0,0-.72,0L4.77,12.07a.53.53,0,0,0,0,.74.51.51,0,0,0,.72,0L12.23,6A.53.53,0,0,0,12.23,5.21ZM6.46,8.15A1.91,1.91,0,1,0,4.58,6.24,1.9,1.9,0,0,0,6.46,8.15Zm0-2.78a.87.87,0,1,1-.86.87A.86.86,0,0,1,6.46,5.37Zm4.08,4.51a1.91,1.91,0,1,0,1.88,1.9A1.89,1.89,0,0,0,10.54,9.88Zm0,2.77a.87.87,0,1,1,.85-.87A.86.86,0,0,1,10.54,12.65Z"/></g></g></svg>