<svg xmlns="http://www.w3.org/2000/svg" viewBox="0 0 14.24 14.19"><g id="Camada_2" data-name="Camada 2"><g id="Camada_1-2" data-name="Camada 1"><path d="M5.46,8.78C6.74,10,8.21,11.25,8.79,10.67c.84-.84,1.35-1.57,3.19-.1s.44,2.46-.37,3.27-4.41.07-7.85-3.35S-.59,3.6.34,2.67,2.13.44,3.61,2.27s.76,2.35-.07,3.19C3,6,4.18,7.51,5.46,8.78Zm1.85-6a.81.81,0,0,0-.65.21A.75.75,0,0,0,6.66,4a.86.86,0,0,0,.42.21A3.42,3.42,0,0,1,9,5.2a3.42,3.42,0,0,1,1,2,.86.86,0,0,0,.21.42.75.75,0,0,0,1,0,.81.81,0,0,0,.21-.65A5.08,5.08,0,0,0,7.31,2.73Zm3.61.58a5.19,5.19,0,0,1,1.8,4.26.82.82,0,0,0,.2.67.74.74,0,0,0,1.05,0,1,1,0,0,0,.22-.48A6.63,6.63,0,0,0,12,2.26,6.65,6.65,0,0,0,6.45,0,.93.93,0,0,0,6,.26.75.75,0,0,0,6,1.31a.84.84,0,0,0,.68.2A5.22,5.22,0,0,1,10.92,3.31Z"/></g></g></svg>