<svg xmlns="http://www.w3.org/2000/svg" viewBox="0 0 5.97 9.68"><g id="Camada_2" data-name="Camada 2"><g id="Camada_1-2" data-name="Camada 1"><path d="M3,0A3.37,3.37,0,0,0,1.41.34a2.48,2.48,0,0,0-1,1A2.7,2.7,0,0,0,0,2.73H1.17a1.63,1.63,0,0,1,.48-1.24A1.88,1.88,0,0,1,3,1a1.82,1.82,0,0,1,1.32.48A1.75,1.75,0,0,1,4.79,2.8,1.6,1.6,0,0,1,4,4.34a4.54,4.54,0,0,1-2.11.41h-.4L1.58,6.9H2.65l0-1.3a3.87,3.87,0,0,0,2.4-.68A2.52,2.52,0,0,0,6,2.8a2.65,2.65,0,0,0-.83-2A3.08,3.08,0,0,0,3,0ZM2.11,9.68a.8.8,0,0,0,.58-.24.9.9,0,0,0,0-1.2A.8.8,0,0,0,2.11,8a.81.81,0,0,0-.6.24.85.85,0,0,0,0,1.2.81.81,0,0,0,.6.24Z"/></g></g></svg>