<svg xmlns="http://www.w3.org/2000/svg" viewBox="0 0 19 19.06"><g id="Camada_2" data-name="Camada 2"><g id="Camada_1-2" data-name="Camada 1"><path d="M8.36,8c0-.85-.47-1.39-1.58-1.39H5.34V9.39H6.78C7.88,9.39,8.36,8.79,8.36,8Z"/><path d="M9.5,0A9.53,9.53,0,1,0,19,9.53,9.52,9.52,0,0,0,9.5,0ZM8.3,13.24,6.52,10.18H5.34v3.06h-1V5.75H6.78c1.75,0,2.59,1,2.59,2.2A2.11,2.11,0,0,1,7.59,10.1l1.87,3.14Zm6.33-2a1.92,1.92,0,0,1-2.06,2,2,2,0,0,1-2.08-2.1h1c0,.69.34,1.23,1.11,1.23a1,1,0,0,0,1.08-1.16V5.75h1Z"/></g></g></svg>