<svg xmlns="http://www.w3.org/2000/svg" viewBox="0 0 28 25"><g id="Camada_2" data-name="Camada 2"><g id="Camada_1-2" data-name="Camada 1"><path d="M23.1,15.28a4.88,4.88,0,0,0-4.25,2.49l-9.18-3.5a4.45,4.45,0,0,0-.09-2.45L19,7.5a4.84,4.84,0,1,0-.8-2.64,4.86,4.86,0,0,0,.22,1.38L9,10.55a4.88,4.88,0,1,0,.15,5l9.18,3.5a4.84,4.84,0,0,0-.13,1.08,4.9,4.9,0,1,0,4.9-4.86Zm0-13.89a3.47,3.47,0,1,1-3.5,3.47A3.49,3.49,0,0,1,23.1,1.39ZM4.9,16.67a3.48,3.48,0,1,1,3.5-3.48A3.49,3.49,0,0,1,4.9,16.67Zm18.2,6.94a3.47,3.47,0,1,1,3.5-3.47A3.49,3.49,0,0,1,23.1,23.61Z"/></g></g></svg>