<svg xmlns="http://www.w3.org/2000/svg" viewBox="0 0 19 19.06"><defs><style>.cls-1{fill-rule:evenodd;}</style></defs><g id="Camada_2" data-name="Camada 2"><g id="Camada_1-2" data-name="Camada 1"><path class="cls-1" d="M12.66,6.6H11.23V9.35h1.43c1.12,0,1.59-.52,1.59-1.36S13.78,6.6,12.66,6.6Z"/><path class="cls-1" d="M9.5,0A9.53,9.53,0,1,0,19,9.53,9.52,9.52,0,0,0,9.5,0ZM6.34,13.36c-1.5,0-2.56-.84-2.59-2.07h1a1.39,1.39,0,0,0,1.55,1.24c.94,0,1.5-.53,1.5-1.24,0-2-4-.73-4-3.52,0-1.23,1-2.07,2.47-2.07A2.24,2.24,0,0,1,8.75,7.62H7.67A1.34,1.34,0,0,0,6.23,6.54c-.8,0-1.44.4-1.44,1.2,0,1.94,4,.73,4,3.5A2.24,2.24,0,0,1,6.34,13.36Zm6.32-3.2H11.23v3.13h-1V5.8h2.41c1.76,0,2.59,1,2.59,2.19S14.52,10.16,12.66,10.16Z"/></g></g></svg>