<svg xmlns="http://www.w3.org/2000/svg" viewBox="0 0 201.97 119.46"><g id="Camada_2" data-name="Camada 2"><g id="Camada_1-2" data-name="Camada 1"><path d="M143.2,19c7.59,0,14.53.13,21.46-.05,3.26-.09,5.12,1.07,6.56,4,2.9,5.92,6.49,11.51,9.19,17.51C182.61,45.3,186,48,191,49.72c11,3.81,10.93,4.06,11,15.73,0,9.58,0,19.17,0,28.75,0,6.44-2.57,9.17-8.93,8.91-3.8-.16-5.65.85-7.15,4.61-3.1,7.8-9.48,11.67-17.89,11.74-8.19.07-14.21-3.74-17.94-11-.82-1.61-1.44-3.31-2.21-5.09h-66c-4.36,5.06-7.48,10-11.83,13.26-2.82,2.15-7.45,2.74-11.24,2.67-9.43-.17-15.22-5.48-18.58-16.1-2.86,0-5.88.32-8.78-.15-1.36-.22-2.47-2-3.69-3,1.22-1.24,2.28-3.26,3.71-3.56,2.69-.58,5.59-.17,8.4-.17,1.48-3.2,2.9-6.25,4.61-9.93-4.14,0-8-.17-11.89,0-3.62.2-5-1-4.93-4.8.23-8.24.07-16.5.07-25.53-7.16,0-14.06,0-21,0-1.49,0-3.23.31-4.38-.34A5.14,5.14,0,0,1,0,52.15c-.06-.79,1.75-2.31,2.85-2.45a65.89,65.89,0,0,1,8.44-.15q17.67,0,35.32,0c2.29,0,5.39-.26,4.86,3.09-.22,1.36-3,3.05-4.79,3.28-3.89.5-7.89.15-12.22.15V79.33H136.15V7.22H34.35V27.41c4.23,0,8.3,0,12.37,0,2.34,0,5,0,5,3.35s-2.76,3.1-5.07,3.1q-13.44,0-26.87,0c-2.38,0-5.28,0-4.72-3.29.21-1.27,2.81-2.68,4.53-3,2.5-.51,5.19-.13,8.15-.13,0-8,.12-15.22-.05-22.47C27.55,1.27,29,0,32.62,0Q85.35.12,138.09,0c3.95,0,5.31,1.59,5.15,5.35C143.06,9.62,143.2,13.9,143.2,19Zm.38,60.4h52.08V66.74c0-8.19.12-8.61-7.61-10.94-6.53-2-10.73-5.59-13.35-11.85a134.19,134.19,0,0,0-8.13-15.23c-.71-1.22-2.24-2.72-3.46-2.77-6.4-.27-12.83-.13-19.53-.13Zm4.13,16.83,4.42-9.5H75.66l4.52,9.5Zm33.23,3.55a13.27,13.27,0,0,0-13.1-13.3c-7.31,0-12.93,5.83-12.94,13.36a13.09,13.09,0,0,0,13,13.31A13.34,13.34,0,0,0,180.94,99.73ZM46.7,99.51c-.14,7,6,13.4,13,13.59s13.36-6,13.53-13.09-6-13.38-13.05-13.56S46.84,92.48,46.7,99.51ZM195.41,86.65H183.6l4.2,9.28h7.61Z"/></g></g></svg>