<svg xmlns="http://www.w3.org/2000/svg" viewBox="0 0 19.73 22"><defs><style>.cls-1{fill-rule:evenodd;}</style></defs><g id="Camada_2" data-name="Camada 2"><g id="Camada_1-2" data-name="Camada 1"><path class="cls-1" d="M19.73,21.86V22h-2a8,8,0,0,0-2.17-5.53A7.74,7.74,0,0,0,4.73,16,7.76,7.76,0,0,0,2,22H0v-.09a9.93,9.93,0,0,1,6-9.06A7.27,7.27,0,0,1,3.65,4,6.86,6.86,0,0,1,9.91,0a6.73,6.73,0,0,1,6.17,4,7.13,7.13,0,0,1,.54,4.35,7.53,7.53,0,0,1-2.88,4.48A9.93,9.93,0,0,1,19.73,21.86ZM5,6.13a5.1,5.1,0,0,0,1.94,4.94,5,5,0,0,0,5.49.18,4.92,4.92,0,0,0,2.34-4.89,5.29,5.29,0,0,0-1.35-2.84A4.7,4.7,0,0,0,9.23,2.06,4.83,4.83,0,0,0,5,6.13Z"/></g></g></svg>