<svg xmlns="http://www.w3.org/2000/svg" viewBox="0 0 15.99 16"><g id="Camada_2" data-name="Camada 2"><g id="Camada_1-2" data-name="Camada 1"><path d="M16,7.79a7.83,7.83,0,0,1-7.85,7.8,8,8,0,0,1-3.8-1L0,16l1.42-4.18a7.71,7.71,0,0,1-1.13-4,7.85,7.85,0,0,1,15.7,0ZM8.14,1.24A6.59,6.59,0,0,0,1.54,7.8,6.49,6.49,0,0,0,2.8,11.64L2,14.07l2.54-.81a6.57,6.57,0,1,0,3.63-12Zm4,8.35c0-.08-.18-.13-.37-.22s-1.14-.56-1.31-.62-.31-.1-.44.09-.49.62-.6.75-.23.14-.42.05a5.52,5.52,0,0,1-1.55-1A5.86,5.86,0,0,1,6.34,7.37.28.28,0,0,1,6.43,7c.08-.09.19-.22.28-.34a1.49,1.49,0,0,0,.2-.31.37.37,0,0,0,0-.34c0-.1-.43-1-.59-1.42S6,4.25,5.86,4.25H5.5A.73.73,0,0,0,5,4.48a2.15,2.15,0,0,0-.67,1.59,3.69,3.69,0,0,0,.79,2,7.85,7.85,0,0,0,3.28,2.88c2,.77,2,.51,2.31.48A2,2,0,0,0,12,10.5,1.57,1.57,0,0,0,12.1,9.59Z"/></g></g></svg>