<svg viewBox="0 0 192.43 144.33"><path d="M139.68 125.74a16 16 0 009.11-2.83 16.23 16.23 0 0022.66-4.43 16.65 16.65 0 00-4.38-22.93 16.12 16.12 0 00-18.28 0 16 16 0 00-9.11-2.83 16.51 16.51 0 000 33zm0-23.84a7.2 7.2 0 015.59 2.69 4.5 4.5 0 006.37.69 4.92 4.92 0 00.67-.69 7.17 7.17 0 0110.2-.91 7.37 7.37 0 01.9 10.32 7.15 7.15 0 01-10.19.91 5.69 5.69 0 01-.95-1 4.31 4.31 0 00-3.48-1.6 4.44 4.44 0 00-3.47 1.64 7.06 7.06 0 01-5.6 2.65 7.35 7.35 0 01-7.31-7.35 7.26 7.26 0 017.27-7.35zm52.57-45.08c0-.41.18-.87.18-1.33s-.18-.87-.18-1.28v-9.77a19.32 19.32 0 00-19.31-19.32h-5.51v-5.53C167.43 8.86 159 0 148.39 0H19.13A19.4 19.4 0 000 19.59v80.3a19.16 19.16 0 0019 19.32h5.37v5.52a19.53 19.53 0 0019.27 19.6h129.3a19.58 19.58 0 0019.31-19.6V78.24c0-.41.18-.87.18-1.28s-.18-.87-.18-1.28zM24.37 44.44v65.63h-5.24a10.06 10.06 0 01-10.1-10V19.59a10.32 10.32 0 0110.1-10.46h129.3a10.25 10.25 0 0110 10.46v5.53H43.64a19.28 19.28 0 00-19.27 19.32zm158.86 80.29a10.45 10.45 0 01-10.29 10.46H43.64a10.37 10.37 0 01-10.24-10.46V81.3h149.83zm0-52.57H33.4V60.29h149.83zm0-21H33.4v-6.72a10.2 10.2 0 0110.24-10.19H173a10.22 10.22 0 0110.29 10.19z"/></svg>