<svg viewBox="0 0 25 25.03"><path d="M24.72 11.05l-.82-1.54a12.59 12.59 0 01-1.22-2.94l-.51-1.67a3.9 3.9 0 00-2.06-2.07l-1.67-.51A12.42 12.42 0 0115.5 1.1L14 .28a4 4 0 00-3 0l-1.5.82a12.42 12.42 0 01-2.94 1.22l-1.67.51A3.9 3.9 0 002.83 4.9l-.51 1.67A12.59 12.59 0 011.1 9.51l-.82 1.54A3.62 3.62 0 000 12.49 3.56 3.56 0 00.28 14l.82 1.54a12.67 12.67 0 011.22 3l.51 1.67a4 4 0 002.06 1.99l1.67.5a12.42 12.42 0 012.94 1.22l1.54.82a3.88 3.88 0 002.92 0l1.54-.82a12.42 12.42 0 012.94-1.22l1.67-.5a4 4 0 002.06-2.07l.51-1.67a12.67 12.67 0 011.22-3l.82-1.46a3.47 3.47 0 00.28-1.48 3.52 3.52 0 00-.28-1.47zm-13.25 6.46L6 12l2.05-1.94 3.42 3.23 5.14-5.81L19 9.45z" fill-rule="evenodd"/></svg>