<svg viewBox="0 0 86 51"><path d="M31.27 35.31a1.84 1.84 0 00-1.95-2H13.68a2 2 0 000 3.92h15.64a1.85 1.85 0 001.95-1.92zm-5.86-9.81a1.85 1.85 0 00-2-2H7.82a2 2 0 100 3.92h15.63a1.85 1.85 0 001.96-1.92zm-5.86-9.81a1.86 1.86 0 00-2-2H2a1.84 1.84 0 00-1.95 2 1.84 1.84 0 002 2h15.54a1.85 1.85 0 001.96-2zm55.5-7.45L54.34 24.13a6.15 6.15 0 01-7.24 0L26.39 8.24A2 2 0 0024 11.38l21 15.89a9.62 9.62 0 005.87 2 9.21 9.21 0 005.86-2L77.4 11.38a2.12 2.12 0 00.39-2.75 2.1 2.1 0 00-2.74-.39zM80.14 0H17.59a1.84 1.84 0 00-1.95 2 1.84 1.84 0 001.95 2h62.55a1.85 1.85 0 012 2v39.11a1.85 1.85 0 01-2 2H17.59a2 2 0 000 3.92h62.55A5.77 5.77 0 0086 45.11V5.88A5.77 5.77 0 0080.14 0zM65.87 28.05a1.88 1.88 0 00-2.74 0 1.91 1.91 0 000 2.75l11.73 11.76a1.89 1.89 0 002.74 0 1.9 1.9 0 000-2.74z"/></svg>