<svg viewBox="0 0 12.27 10.93"><path d="M12.12 2.33A3.24 3.24 0 008.54 0a3.93 3.93 0 00-2.4 1.45A3.62 3.62 0 003.18 0a3.21 3.21 0 00-3 2.14 4.45 4.45 0 00.68 4C2.1 7.8 4 8.87 5.43 10.39c.22.24.43.54.73.54s.61-.45.84-.69.53-.52.76-.72C9.34 8.13 11.28 7 12 4.9a4.35 4.35 0 00.12-2.57zm-1 1.55a4.25 4.25 0 01-1.25 2.31C8.64 7.43 7.27 8.38 6.12 9.6 4.93 8.15 2.93 7.05 1.8 5.43a3.16 3.16 0 01-.69-2.14 2.17 2.17 0 012.23-2.16 2.36 2.36 0 011.58.71 7.63 7.63 0 01.57.57c.18.2.35.47.65.48s.46-.29.64-.48a5.51 5.51 0 01.56-.54 2.58 2.58 0 011.47-.74 2.64 2.64 0 011.26.28 2.3 2.3 0 011.09 2.47z" fill-rule="evenodd"/></svg>