<svg viewBox="0 0 35 38.99"><path d="M17.5 39a4.45 4.45 0 01-2.21-.58L2.21 30.86A4.42 4.42 0 010 27V12a4.43 4.43 0 012.21-3.87L15.29.59a4.42 4.42 0 014.42 0l13.08 7.54A4.43 4.43 0 0135 12v15a4.42 4.42 0 01-2.21 3.82l-13.08 7.59a4.45 4.45 0 01-2.21.59zm0-37a2.46 2.46 0 00-1.21.32L3.21 9.86A2.42 2.42 0 002 12v15a2.41 2.41 0 001.21 2.09l13.08 7.54a2.43 2.43 0 002.42 0l13.08-7.54A2.41 2.41 0 0033 27V12a2.42 2.42 0 00-1.21-2.09L18.71 2.32A2.46 2.46 0 0017.5 2z"/><path d="M8.13 9.33h.16a2.58 2.58 0 01.88.35c2.5 1.43 5 2.87 7.5 4.29a1.6 1.6 0 001.66 0l7.25-4.16a3.09 3.09 0 011.13-.49h.15a3.05 3.05 0 011.14.52l.42.25.71.44a1.27 1.27 0 01.67 1.19v14.06a1.06 1.06 0 01-.6 1l-5.08 2.8-.1.05v-12l-.11.06-.6.35c-1.44.83-2.9 1.65-4.31 2.54a2.84 2.84 0 01-2.38.29 4.46 4.46 0 01-1-.52c-1.51-.9-3-1.78-4.56-2.68h-.09v12l-.33-.18-4.89-2.7a.93.93 0 01-.54-.79 4.13 4.13 0 010-.5V11.62a1.28 1.28 0 01.64-1.15L7 9.85a3 3 0 011.13-.52z"/></svg>