<svg viewBox="0 0 17 18.02"><path d="M16.18 9.25a.55.55 0 010-.47l.66-1.38a1.56 1.56 0 00-.66-2.07l-1.33-.72a.53.53 0 01-.27-.38l-.26-1.51a1.54 1.54 0 00-1.74-1.28l-1.49.21a.49.49 0 01-.43-.14L9.57.44a1.51 1.51 0 00-2.14 0L6.34 1.51a.49.49 0 01-.43.14l-1.49-.21a1.54 1.54 0 00-1.74 1.28l-.26 1.51a.56.56 0 01-.27.38l-1.33.72A1.56 1.56 0 00.16 7.4l.66 1.38a.55.55 0 010 .47l-.66 1.37a1.58 1.58 0 00.66 2.08l1.33.72a.52.52 0 01.27.37l.26 1.51a1.54 1.54 0 001.52 1.3h.22l1.49-.22a.49.49 0 01.43.15l1.09 1.06a1.52 1.52 0 002.14 0l1.09-1.06a.49.49 0 01.43-.15l1.49.22a1.56 1.56 0 001.74-1.29l.26-1.51a.49.49 0 01.27-.37l1.33-.72a1.58 1.58 0 00.66-2.08zm-.92.45l.66 1.38a.53.53 0 01-.22.7l-1.33.72a1.56 1.56 0 00-.8 1.11l-.26 1.51a.52.52 0 01-.59.44l-1.49-.22a1.52 1.52 0 00-1.29.43l-1.08 1.06a.51.51 0 01-.72 0l-1.08-1.06A1.53 1.53 0 006 15.33h-.23l-1.49.22a.52.52 0 01-.59-.44l-.26-1.51a1.59 1.59 0 00-.8-1.11l-1.33-.71a.53.53 0 01-.22-.7l.66-1.38a1.59 1.59 0 000-1.38L1.08 7a.54.54 0 01.22-.71l1.33-.71a1.6 1.6 0 00.8-1.12l.26-1.56a.52.52 0 01.59-.43l1.49.21a1.52 1.52 0 001.29-.42l1.08-1.07a.51.51 0 01.72 0l1.08 1.07a1.52 1.52 0 001.29.42l1.49-.21a.52.52 0 01.59.43l.26 1.51a1.58 1.58 0 00.8 1.12l1.33.71a.54.54 0 01.22.71l-.66 1.37a1.59 1.59 0 000 1.38zm-3-4.49a.51.51 0 00-.72 0l-6.77 6.86a.53.53 0 000 .74.51.51 0 00.72 0L12.23 6a.53.53 0 000-.79zm-5.8 2.94a1.91 1.91 0 10-1.88-1.91 1.9 1.9 0 001.88 1.91zm0-2.78a.87.87 0 11-.86.87.86.86 0 01.86-.87zm4.08 4.51a1.91 1.91 0 101.88 1.9 1.89 1.89 0 00-1.88-1.9zm0 2.77a.87.87 0 11.85-.87.86.86 0 01-.85.87z"/></svg>