<svg viewBox="0 0 14.24 14.19"><path d="M5.46 8.78c1.28 1.22 2.75 2.47 3.33 1.89.84-.84 1.35-1.57 3.19-.1s.44 2.46-.37 3.27-4.41.07-7.85-3.35S-.59 3.6.34 2.67s1.79-2.23 3.27-.4.76 2.35-.07 3.19C3 6 4.18 7.51 5.46 8.78zm1.85-6a.81.81 0 00-.65.21.75.75 0 000 1.01.86.86 0 00.42.21A3.42 3.42 0 019 5.2a3.42 3.42 0 011 2 .86.86 0 00.21.42.75.75 0 001 0 .81.81 0 00.21-.65 5.08 5.08 0 00-4.11-4.24zm3.61.58a5.19 5.19 0 011.8 4.26.82.82 0 00.2.67.74.74 0 001.05 0 1 1 0 00.22-.48A6.63 6.63 0 0012 2.26 6.65 6.65 0 006.45 0 .93.93 0 006 .26a.75.75 0 000 1.05.84.84 0 00.68.2 5.22 5.22 0 014.24 1.8z"/></svg>