<svg viewBox="0 0 19 19.06"><path d="M12.66 6.6h-1.43v2.75h1.43c1.12 0 1.59-.52 1.59-1.36s-.47-1.39-1.59-1.39z"/><path d="M9.5 0A9.53 9.53 0 1019 9.53 9.52 9.52 0 009.5 0zM6.34 13.36c-1.5 0-2.56-.84-2.59-2.07h1a1.39 1.39 0 001.55 1.24c.94 0 1.5-.53 1.5-1.24 0-2-4-.73-4-3.52 0-1.23 1-2.07 2.47-2.07a2.24 2.24 0 012.48 1.92H7.67a1.34 1.34 0 00-1.44-1.08c-.8 0-1.44.4-1.44 1.2 0 1.94 4 .73 4 3.5a2.24 2.24 0 01-2.45 2.12zm6.32-3.2h-1.43v3.13h-1V5.8h2.41c1.76 0 2.59 1 2.59 2.19s-.71 2.17-2.57 2.17z"/></svg>