<svg viewBox="0 0 15.99 16"><path d="M16 7.79a7.83 7.83 0 01-7.85 7.8 8 8 0 01-3.8-1L0 16l1.42-4.18a7.71 7.71 0 01-1.13-4 7.85 7.85 0 0115.7 0zM8.14 1.24a6.59 6.59 0 00-6.6 6.56 6.49 6.49 0 001.26 3.84L2 14.07l2.54-.81a6.57 6.57 0 103.63-12zm4 8.35c0-.08-.18-.13-.37-.22s-1.14-.56-1.31-.62-.31-.1-.44.09-.49.62-.6.75-.23.14-.42.05a5.52 5.52 0 01-1.55-1 5.86 5.86 0 01-1.11-1.27.28.28 0 01.09-.37c.08-.09.19-.22.28-.34a1.49 1.49 0 00.2-.31.37.37 0 000-.34c0-.1-.43-1-.59-1.42s-.32-.34-.46-.34H5.5a.73.73 0 00-.5.23 2.15 2.15 0 00-.67 1.59 3.69 3.69 0 00.79 2 7.85 7.85 0 003.28 2.88c2 .77 2 .51 2.31.48A2 2 0 0012 10.5a1.57 1.57 0 00.1-.91z"/></svg>