<svg class="svg-sprites" id="skin-sprite" xmlns="http://www.w3.org/2000/svg" xmlns:xlink="http://www.w3.org/1999/xlink">
    <symbol viewBox="0 0 295.91 287.42" id="z-brazil"><path d="M294.91 88.58c-1.68-5.89-4.49-10.23-8.59-13.25a37.6 37.6 0 00-9.85-4.74 45.17 45.17 0 01-8.18-3.59c-6.26-3.78-10-6.25-12.48-7.89-5.5-3.63-6.43-4.11-12.4-4.53-3-.21-8-.56-17.74-2.06-1.37-.21-1.4-.23-2.81-1.66a36.71 36.71 0 00-10.75-7.7 30.43 30.43 0 00-16.39-3.37c-3.7.28-6.58 1.71-11.34 4.08L181 45.52c.21-2.77.39-5.81.52-8.24 3.33-8.47 3-11.29-1.56-17.71-.8-1.13-1.71-2.41-2.76-4.07a15.47 15.47 0 00-12.1-9.14 16.66 16.66 0 00-15.44 5.47c-7 5.22-24.9 11.45-34.16 9.3a7.54 7.54 0 01-2.43-.93c.53-1.65 1.05-3.3 1.58-5a5.65 5.65 0 00.28-1.69c.07-5.59-1.86-9.51-5.78-11.57-3-1.58-6.46-1.7-10.47-1.82l-2-.07C87.07-.34 74 1.61 68.92 8.4a10.67 10.67 0 00-1.59 10 5.78 5.78 0 001 1.85l2 2.43a77.29 77.29 0 01-8.15 4.75l-.81.42c-3.61-2.08-7.78-4.45-8.45-4.79-.17-.08-.34-.16-.51-.22-10-3.84-19-1.58-24.21 6s-5 18.8.12 26.57c-.79 4-1.64 8.11-2.29 11-8.27-.07-14.22 1.15-18.11 3.76C5.34 72 3.85 75 3.39 79.41a40.66 40.66 0 00.18 8.47A26.33 26.33 0 000 100.51c0 8.43 4.27 14.95 12.36 18.86 3.26 1.67 7.38.44 15.44-2.21l1.94-.63c7.29 9.68 20.86 7.9 27.79 5.21 1.13-.41 2.36-.81 3.49-1.15 1.45 5.75 3.94 14.35 10.83 17.19 2 .85 13.91 5.5 15 5.92 2.84 1.1 4.86 1.73 6.34 2.19a23.3 23.3 0 012.78 1 9.39 9.39 0 012.85 1.7c0 .34-.14.9-.22 1.3-.43 2.21-1.15 5.9 1.4 9.59 2.13 3.08 6 5.27 12.49 7.08l2.17.72a23.15 23.15 0 01.72 3.79 83.81 83.81 0 010 17 6 6 0 00-.12 2c.2 1.75.42 3.73 14.15 26.14 4.12 6.72 8.25 13.3 10.73 17.23-4.53 5.66-11 15.11-13.51 18.8a14.77 14.77 0 006.75 21.93c2.83 1.13 5.77 2.25 8.13 3.16 1.31.49 2.75 1 3.56 1.37.25.23.55.52.81.79 4.85 4.78 8.38 8 12.24 7.95h.45a6.49 6.49 0 004.76-2.49 4.15 4.15 0 00.24-.34l9.55-14.1 4.46-5.33 5.5-6.59a3.68 3.68 0 00.3-.39l1-1.35c6.19-8.82 6.58-9.89 7-19.19 0-.55 0-1.14.07-1.77 5.53-5.43 11.35-11 12.73-12.14a40.53 40.53 0 0119-6.13c5-.53 10.26-1.08 15.69-5.89 5-4.48 9.74-12.15 15.68-25.64.77-1.77 2.22-5.62 4.29-11.43.28-.78.55-1.61.86-2.59a61.86 61.86 0 002.57-13.63c.19-2.61.23-3.53.27-4.14s0-.79.34-3.8a119.5 119.5 0 019.07-13.68l8.46-11a1 1 0 00.08-.11c.82-1.12 1.65-2.23 2.47-3.34 6.4-8.61 13-17.51 13-27.62a22.66 22.66 0 00-1.05-6.17zm-21.28 26.78c-.83 1.11-1.66 2.23-2.49 3.37l-8.4 10.94c-.07.09-4.34 5.72-7.62 11l-.74 3a118.87 118.87 0 01-4.31 18.69c-.13.71-.26 1.42-.41 2.12h-.3l-.17.48a53.22 53.22 0 01-5.42 11.14h2.16c-1.2 3.24-1.77 4.63-2 5.23-5.07 11.54-9.13 18.41-12.75 21.63-2.55 2.25-4.67 2.56-9.23 3a51.74 51.74 0 00-24 7.85c-.59.35-2 1.19-16.27 15.27A5.8 5.8 0 00180 233c-.08 1.6-.14 3-.18 4.16-.15 3.68-.23 5.22-.63 6.33-.48 1.29-1.81 3.18-4.23 6.62l-.81 1.17-5.35 6.39-4.65 5.56a4.1 4.1 0 00-.35.47l-6.9 10.19c-1.15-1-2.3-2.18-2.86-2.73a15.84 15.84 0 00-2.78-2.43c-.68-.42-1.27-.65-5.57-2.29-2.33-.89-5.23-2-8-3.09a3.13 3.13 0 01-1.43-4.64c6.46-9.66 13.4-18.95 15-20.48a5.84 5.84 0 00.94-7.4c-11-17.26-22.95-36.9-25.27-42a95.07 95.07 0 00.35-12.72h.32c-.72-4.79-1.52-9.72-2.25-13.19-1-2.85-2.73-5.28-5.65-6.25l-3.79-1.25-.27-.08c-3.75-1-5.32-1.91-5.91-2.33 0-.28.11-.63.17-.92.8-4.1.81-8.63-3.8-12.55L97.18 135l-.6-.18c-1.46-.46-3.13-1-5.59-1.94-3.57-1.37-13.5-5.27-14.55-5.73l-.19-.08c-.76-.31-1.57-1.68-2.43-4.05l-1.14-.58a12.76 12.76 0 00.1-2.63c-.24-4.09-2.5-11.11-15.67-8-6.37 1.52-10.18 1.31-12.45.41-2.77-.27-5.45-1.44-6.78-4.58a5.83 5.83 0 00-3.41-3.21c-2.43-.85-4.56-.15-10.26 1.72-2.15.71-5.91 2-7.75 2.31-4.29-2.4-4.9-5.32-4.9-7.91a15.45 15.45 0 012.49-7.64 5.84 5.84 0 001.16-5.25c-.06-.29-.16-1-.24-1.8h6.45l-.65-.67S29.89 84 36.46 72.57c.68-2.49 1.77-7.35 3.73-17.44a5.85 5.85 0 00-1.38-5C35.47 46.4 35 39.56 37.76 35.47c2-3 5.47-3.61 10.22-1.87 1.34.74 6.76 3.85 10.49 6a5.76 5.76 0 006-.12c.6-.38 1.82-1 3.12-1.7 7.86-4.12 14-7.7 15.27-13a8 8 0 00-1.22-6.58c-.09-.13-.18-.26-.28-.38l-2.49-3c2.17-1.51 8.69-3.46 17.44-3.11l2 .07a39 39 0 015 .36 4.82 4.82 0 010 .52l-2.17 6.76-.08.24a5.87 5.87 0 00.29 4.3c1.45 3 4.61 7 11.51 8.56 13.77 3.17 35.85-5.06 44.42-11.91a5.53 5.53 0 001-1 5.23 5.23 0 015-1.68 4 4 0 013.28 2.07 6.06 6.06 0 00.56 1.18c1.37 2.19 2.52 3.81 3.45 5.11a22.83 22.83 0 011.6 2.43 25.35 25.35 0 01-1.72 5.09 5.7 5.7 0 00-.41 1.87c-.3 5.72-.79 12.72-1.06 14a6.58 6.58 0 001.64 6.16c.91.94 3.34 3.45 11.9 1.59a6 6 0 001.26-.42c2.28-1.09 4.2-2 5.73-2.81 4-2 5.67-2.8 7.08-2.9a18.58 18.58 0 0110.34 2.16 25.46 25.46 0 017.75 5.52 14.57 14.57 0 009.24 5.02c10.2 1.57 15.51 1.94 18.69 2.17a15.5 15.5 0 013.11.35 29.1 29.1 0 013.74 2.29l1.54 1c6.28 2.25 26.87 10 29.34 15.33.1.22.18.45.27.67h.15a14 14 0 013 6 11.66 11.66 0 01.55 2.91c.04 6.28-5.17 13.28-10.68 20.64z" fill-rule="evenodd"/></symbol>
    <symbol viewBox="0 0 36.5 26.5" id="z-card-lock"><path d="M35 17.5h-1.5v-3a4 4 0 00-8 0v3H25a1.5 1.5 0 00-1.5 1.5v7.5h13V19a1.5 1.5 0 00-1.5-1.5zm-8.5-3a3 3 0 016 0v3h-6zm9 11h-11V19a.5.5 0 01.5-.5h10a.5.5 0 01.5.5zM5.23 9.5h11.5v1H5.23zm0 4h11.5v1H5.23zm0 3h4.79v1H5.23z"/><path d="M1 19.5v-12h32.54v2h1v-7a2.45 2.45 0 00-2.4-2.5H2.4A2.45 2.45 0 000 2.5v17A2.45 2.45 0 002.4 22h18.1v-1H2.4A1.46 1.46 0 011 19.5zm0-17A1.46 1.46 0 012.4 1h29.7a1.47 1.47 0 011.44 1.5v4H1z"/></symbol>
    <symbol viewBox="0 0 192.43 144.33" id="z-cards"><path d="M139.68 125.74a16 16 0 009.11-2.83 16.23 16.23 0 0022.66-4.43 16.65 16.65 0 00-4.38-22.93 16.12 16.12 0 00-18.28 0 16 16 0 00-9.11-2.83 16.51 16.51 0 000 33zm0-23.84a7.2 7.2 0 015.59 2.69 4.5 4.5 0 006.37.69 4.92 4.92 0 00.67-.69 7.17 7.17 0 0110.2-.91 7.37 7.37 0 01.9 10.32 7.15 7.15 0 01-10.19.91 5.69 5.69 0 01-.95-1 4.31 4.31 0 00-3.48-1.6 4.44 4.44 0 00-3.47 1.64 7.06 7.06 0 01-5.6 2.65 7.35 7.35 0 01-7.31-7.35 7.26 7.26 0 017.27-7.35zm52.57-45.08c0-.41.18-.87.18-1.33s-.18-.87-.18-1.28v-9.77a19.32 19.32 0 00-19.31-19.32h-5.51v-5.53C167.43 8.86 159 0 148.39 0H19.13A19.4 19.4 0 000 19.59v80.3a19.16 19.16 0 0019 19.32h5.37v5.52a19.53 19.53 0 0019.27 19.6h129.3a19.58 19.58 0 0019.31-19.6V78.24c0-.41.18-.87.18-1.28s-.18-.87-.18-1.28zM24.37 44.44v65.63h-5.24a10.06 10.06 0 01-10.1-10V19.59a10.32 10.32 0 0110.1-10.46h129.3a10.25 10.25 0 0110 10.46v5.53H43.64a19.28 19.28 0 00-19.27 19.32zm158.86 80.29a10.45 10.45 0 01-10.29 10.46H43.64a10.37 10.37 0 01-10.24-10.46V81.3h149.83zm0-52.57H33.4V60.29h149.83zm0-21H33.4v-6.72a10.2 10.2 0 0110.24-10.19H173a10.22 10.22 0 0110.29 10.19z"/></symbol>
    <symbol viewBox="0 0 22.96 21.99" id="z-cart"><path d="M18.18 16A3 3 0 1021 19a2.94 2.94 0 00-2.82-3zm0 4.2a1.2 1.2 0 111.14-1.2 1.18 1.18 0 01-1.14 1.2zm4.6-15.78a.87.87 0 00-.68-.35H5.3L4.53.69A.87.87 0 003.69 0H.86A.88.88 0 000 .9a.88.88 0 00.86.9H3L5.81 14a.85.85 0 00.83.69H20a.85.85 0 00.83-.68l2.09-8.84a.92.92 0 00-.14-.75zm-3.44 8.49h-12l-1.61-7H21zM7.79 16a3 3 0 000 6 3 3 0 000-6zm0 4.2A1.2 1.2 0 118.93 19a1.18 1.18 0 01-1.14 1.2z"/></symbol>
    <symbol viewBox="0 0 25 25.03" id="z-check"><path d="M24.72 11.05l-.82-1.54a12.59 12.59 0 01-1.22-2.94l-.51-1.67a3.9 3.9 0 00-2.06-2.07l-1.67-.51A12.42 12.42 0 0115.5 1.1L14 .28a4 4 0 00-3 0l-1.5.82a12.42 12.42 0 01-2.94 1.22l-1.67.51A3.9 3.9 0 002.83 4.9l-.51 1.67A12.59 12.59 0 011.1 9.51l-.82 1.54A3.62 3.62 0 000 12.49 3.56 3.56 0 00.28 14l.82 1.54a12.67 12.67 0 011.22 3l.51 1.67a4 4 0 002.06 1.99l1.67.5a12.42 12.42 0 012.94 1.22l1.54.82a3.88 3.88 0 002.92 0l1.54-.82a12.42 12.42 0 012.94-1.22l1.67-.5a4 4 0 002.06-2.07l.51-1.67a12.67 12.67 0 011.22-3l.82-1.46a3.47 3.47 0 00.28-1.48 3.52 3.52 0 00-.28-1.47zm-13.25 6.46L6 12l2.05-1.94 3.42 3.23 5.14-5.81L19 9.45z" fill-rule="evenodd"/></symbol>
    <symbol viewBox="0 0 255.15 238.99" id="z-client"><path d="M62.91 239c-1-2.48-2.69-4.91-2.86-7.44a172 172 0 010-19.4c.17-3.65-.89-5.63-4.32-7.19-7.54-3.42-15-7-22.2-11.17C12.14 181.4.79 162.66.26 138-.22 115.44.09 92.87.18 70.3.22 58.6 8.87 49.8 20 49.79s19.87 8.75 20 20.46c.1 12.92 0 25.84 0 39.11 7.74.32 13.34 4.31 17.87 9.81 10.22 12.42 23.12 19 39.26 20.74 14.43 1.56 25.23 14.65 25.44 29.42.3 21.07.19 42.15 0 63.21 0 2.16-1.86 4.3-2.86 6.45zm7-10.32h42.83c0-19.41.07-38.47 0-57.53-.06-12.12-7.34-20.29-19.37-21.84-15.12-1.94-28.57-7-38.62-19.19a63.44 63.44 0 00-8.53-8.34 9.51 9.51 0 00-13.1.61 9.68 9.68 0 00-.86 13.11 35.12 35.12 0 003.38 3.64q11.07 11.1 22.16 22.17c2.28 2.28 3.22 4.87.78 7.43-2.57 2.71-5.35 2.05-7.82-.41-8.45-8.45-17.09-16.71-25.25-25.41s-6.92-21 1.77-28.85a8.81 8.81 0 002.69-5.66c.24-12.27.12-24.55.12-36.82v-.5C29.9 64.27 26 59.8 20.11 59.77s-10 4.46-10 11.23c-.05 21.4 0 42.79 0 64.19q0 35.79 31.94 51.95c7.68 3.9 15.37 7.79 23.15 11.5 3.43 1.64 4.85 4 4.74 7.83-.22 7.28-.06 14.53-.06 22.2zm185.24-83.3c-2.25 6.87-4.41 13.77-6.8 20.6-1.21 3.47-3.55 6.08-7.52 4.18s-3-5.3-1.39-8.52a56.81 56.81 0 005.78-26c-.08-21.56 0-43.13-.05-64.7 0-6.76-4.15-11.25-10-11.21s-9.76 4.51-9.89 11.35v.49c0 12.28-.12 24.56.13 36.83a8.71 8.71 0 002.72 5.65c8.52 7.69 9.8 20 2 28.48-8.21 8.89-17 17.23-25.58 25.8-2.29 2.29-5 3-7.48.66-2.78-2.62-1.91-5.34.55-7.78 7.74-7.74 15.56-15.42 23.17-23.29a16.45 16.45 0 004.15-6.59c1.14-4.24-.64-7.86-4.35-10.25a9.09 9.09 0 00-11.53.71 61.78 61.78 0 00-8.16 8c-10.28 12.46-24 17.68-39.52 19.53-10.29 1.23-18.28 8.75-18.54 18.92-.5 20-.15 40.08-.15 60.43h42.74c0-7.41.17-14.67-.07-21.91-.13-4 1.2-6.56 4.9-8.24 5.27-2.39 10.42-5.1 15.59-7.71 3.22-1.63 6.32-1.88 8 1.8 1.6 3.41-.48 5.63-3.51 7.08l-.89.43c-4.55 2.37-10.91 3.66-13.15 7.41-2.36 3.95-.82 10.24-.93 15.51-.06 2.82.38 5.71-.12 8.44s-1.88 5-2.88 7.46h-56.75c-1-2.48-2.83-5-2.85-7.44-.24-20.07-.2-40.15-.11-60.23.07-17.19 10.82-29.58 28-31.89 13.29-1.79 24.79-6.42 33.72-17 5.29-6.29 10.95-12.78 20.95-12.89V70.73c.09-10.73 6.55-18.8 16.49-20.68 9.45-1.78 18.53 3.68 22.33 13.42.3.76.67 1.49 1 2.24z"/><path d="M122.34 59.76C104.09 52.88 95.4 40 98.16 25c2.71-14.75 15-25.11 29.72-25s26.87 10.71 29.34 25.48-6.28 27.6-24.14 34.2c1.82.48 3 .84 4.2 1.1a44.92 44.92 0 0135.1 41.79c.24 6.79 0 13.6.11 20.4.06 4.65-2.22 6.51-6.74 6.5q-38.08-.09-76.17 0c-3.58 0-6.58-1-6.64-5-.13-8.61-.68-17.35.46-25.83 2.69-20 16.29-33.84 36.08-38.08.63-.11 1.24-.33 2.86-.8zm40.08 59.65c0-6.17.34-12-.06-17.67-1.24-17.67-16.29-32-34-31.95-24.64.13-40.33 20.27-34.77 49.62zm-54.67-90A19.91 19.91 0 10128.07 10a20 20 0 00-20.32 19.44zm120.13 159.48c-1.32-1.77-3.37-3.39-3.78-5.35-.62-3 1.51-5.5 4.51-5 1.84.29 4.49 2.71 4.65 4.38.19 1.87-2 4-3.2 6z"/></symbol>
    <symbol viewBox="0 0 10 6" id="z-down"><path d="M10 1.18a.73.73 0 00-.24-.42L9.39.32C9.26.17 9.08 0 8.82.11a1.22 1.22 0 00-.3.26C7.69 1.23 6.89 2 6.06 2.88c-.14.14-.29.32-.45.45a.8.8 0 01-.65.2 1.14 1.14 0 01-.57-.31c-.16-.14-.31-.3-.46-.45-.84-.85-1.64-1.64-2.47-2.49C1.34.15 1.26 0 1.05 0H1C.71.05.59.29.42.48A1.35 1.35 0 000 1.1v.08a.8.8 0 00.32.49L.6 2C1.82 3.19 3 4.39 4.25 5.63c.15.15.27.33.49.37h.62c.23 0 .32-.17.47-.32l.27-.29C7.29 4.17 8.48 3 9.68 1.75c.15-.15.29-.24.31-.48z" fill-rule="evenodd"/></symbol>
    <symbol viewBox="0 0 35 38.99" id="z-mercado"><path d="M17.5 39a4.45 4.45 0 01-2.21-.58L2.21 30.86A4.42 4.42 0 010 27V12a4.43 4.43 0 012.21-3.87L15.29.59a4.42 4.42 0 014.42 0l13.08 7.54A4.43 4.43 0 0135 12v15a4.42 4.42 0 01-2.21 3.82l-13.08 7.59a4.45 4.45 0 01-2.21.59zm0-37a2.46 2.46 0 00-1.21.32L3.21 9.86A2.42 2.42 0 002 12v15a2.41 2.41 0 001.21 2.09l13.08 7.54a2.43 2.43 0 002.42 0l13.08-7.54A2.41 2.41 0 0033 27V12a2.42 2.42 0 00-1.21-2.09L18.71 2.32A2.46 2.46 0 0017.5 2z"/><path d="M8.13 9.33h.16a2.58 2.58 0 01.88.35c2.5 1.43 5 2.87 7.5 4.29a1.6 1.6 0 001.66 0l7.25-4.16a3.09 3.09 0 011.13-.49h.15a3.05 3.05 0 011.14.52l.42.25.71.44a1.27 1.27 0 01.67 1.19v14.06a1.06 1.06 0 01-.6 1l-5.08 2.8-.1.05v-12l-.11.06-.6.35c-1.44.83-2.9 1.65-4.31 2.54a2.84 2.84 0 01-2.38.29 4.46 4.46 0 01-1-.52c-1.51-.9-3-1.78-4.56-2.68h-.09v12l-.33-.18-4.89-2.7a.93.93 0 01-.54-.79 4.13 4.13 0 010-.5V11.62a1.28 1.28 0 01.64-1.15L7 9.85a3 3 0 011.13-.52z"/></symbol>
    <symbol viewBox="0 0 42 42" id="z-more"><path d="M21 0a21 21 0 1021 21A21 21 0 0021 0zm0 39.25A18.25 18.25 0 1139.25 21 18.27 18.27 0 0121 39.25zm8.35-19.63h-7v-7a1.38 1.38 0 10-2.76 0v7h-7a1.38 1.38 0 000 2.76h7v7a1.38 1.38 0 002.76 0v-7h7a1.38 1.38 0 000-2.76z"/></symbol>
    <symbol viewBox="0 0 17 18.02" id="z-percent"><path d="M16.18 9.25a.55.55 0 010-.47l.66-1.38a1.56 1.56 0 00-.66-2.07l-1.33-.72a.53.53 0 01-.27-.38l-.26-1.51a1.54 1.54 0 00-1.74-1.28l-1.49.21a.49.49 0 01-.43-.14L9.57.44a1.51 1.51 0 00-2.14 0L6.34 1.51a.49.49 0 01-.43.14l-1.49-.21a1.54 1.54 0 00-1.74 1.28l-.26 1.51a.56.56 0 01-.27.38l-1.33.72A1.56 1.56 0 00.16 7.4l.66 1.38a.55.55 0 010 .47l-.66 1.37a1.58 1.58 0 00.66 2.08l1.33.72a.52.52 0 01.27.37l.26 1.51a1.54 1.54 0 001.52 1.3h.22l1.49-.22a.49.49 0 01.43.15l1.09 1.06a1.52 1.52 0 002.14 0l1.09-1.06a.49.49 0 01.43-.15l1.49.22a1.56 1.56 0 001.74-1.29l.26-1.51a.49.49 0 01.27-.37l1.33-.72a1.58 1.58 0 00.66-2.08zm-.92.45l.66 1.38a.53.53 0 01-.22.7l-1.33.72a1.56 1.56 0 00-.8 1.11l-.26 1.51a.52.52 0 01-.59.44l-1.49-.22a1.52 1.52 0 00-1.29.43l-1.08 1.06a.51.51 0 01-.72 0l-1.08-1.06A1.53 1.53 0 006 15.33h-.23l-1.49.22a.52.52 0 01-.59-.44l-.26-1.51a1.59 1.59 0 00-.8-1.11l-1.33-.71a.53.53 0 01-.22-.7l.66-1.38a1.59 1.59 0 000-1.38L1.08 7a.54.54 0 01.22-.71l1.33-.71a1.6 1.6 0 00.8-1.12l.26-1.56a.52.52 0 01.59-.43l1.49.21a1.52 1.52 0 001.29-.42l1.08-1.07a.51.51 0 01.72 0l1.08 1.07a1.52 1.52 0 001.29.42l1.49-.21a.52.52 0 01.59.43l.26 1.51a1.58 1.58 0 00.8 1.12l1.33.71a.54.54 0 01.22.71l-.66 1.37a1.59 1.59 0 000 1.38zm-3-4.49a.51.51 0 00-.72 0l-6.77 6.86a.53.53 0 000 .74.51.51 0 00.72 0L12.23 6a.53.53 0 000-.79zm-5.8 2.94a1.91 1.91 0 10-1.88-1.91 1.9 1.9 0 001.88 1.91zm0-2.78a.87.87 0 11-.86.87.86.86 0 01.86-.87zm4.08 4.51a1.91 1.91 0 101.88 1.9 1.89 1.89 0 00-1.88-1.9zm0 2.77a.87.87 0 11.85-.87.86.86 0 01-.85.87z"/></symbol>
    <symbol viewBox="0 0 22.01 22.02" id="z-search"><path d="M21.74 20.46l-5.29-5.3a9.27 9.27 0 10-7.17 3.4 9.17 9.17 0 005.87-2.1l5.29 5.29a.92.92 0 001.3 0 .91.91 0 000-1.29zM9.28 16.71a7.44 7.44 0 117.43-7.43 7.44 7.44 0 01-7.43 7.43z"/></symbol>
    <symbol viewBox="0 0 19.73 22" id="z-user"><path d="M19.73 21.86V22h-2a8 8 0 00-2.17-5.53A7.74 7.74 0 004.73 16 7.76 7.76 0 002 22H0v-.09a9.93 9.93 0 016-9.06A7.27 7.27 0 013.65 4a6.86 6.86 0 016.26-4 6.73 6.73 0 016.17 4 7.13 7.13 0 01.54 4.35 7.53 7.53 0 01-2.88 4.48 9.93 9.93 0 015.99 9.03zM5 6.13a5.1 5.1 0 001.94 4.94 5 5 0 005.49.18 4.92 4.92 0 002.34-4.89 5.29 5.29 0 00-1.35-2.84 4.7 4.7 0 00-4.19-1.46A4.83 4.83 0 005 6.13z" fill-rule="evenodd"/></symbol>
</svg>