<svg class="svg-sprites" id="skin-sprite" xmlns="http://www.w3.org/2000/svg" xmlns:xlink="http://www.w3.org/1999/xlink">
    <symbol viewBox="0 0 22.96 21.99" id="z-cart"><path d="M18.18 16A3 3 0 1021 19a2.94 2.94 0 00-2.82-3zm0 4.2a1.2 1.2 0 111.14-1.2 1.18 1.18 0 01-1.14 1.2zm4.6-15.78a.87.87 0 00-.68-.35H5.3L4.53.69A.87.87 0 003.69 0H.86A.88.88 0 000 .9a.88.88 0 00.86.9H3L5.81 14a.85.85 0 00.83.69H20a.85.85 0 00.83-.68l2.09-8.84a.92.92 0 00-.14-.75zm-3.44 8.49h-12l-1.61-7H21zM7.79 16a3 3 0 000 6 3 3 0 000-6zm0 4.2A1.2 1.2 0 118.93 19a1.18 1.18 0 01-1.14 1.2z"/></symbol>
    <symbol viewBox="0 0 25 25.03" id="z-check"><path d="M24.72 11.05l-.82-1.54a12.59 12.59 0 01-1.22-2.94l-.51-1.67a3.9 3.9 0 00-2.06-2.07l-1.67-.51A12.42 12.42 0 0115.5 1.1L14 .28a4 4 0 00-3 0l-1.5.82a12.42 12.42 0 01-2.94 1.22l-1.67.51A3.9 3.9 0 002.83 4.9l-.51 1.67A12.59 12.59 0 011.1 9.51l-.82 1.54A3.62 3.62 0 000 12.49 3.56 3.56 0 00.28 14l.82 1.54a12.67 12.67 0 011.22 3l.51 1.67a4 4 0 002.06 1.99l1.67.5a12.42 12.42 0 012.94 1.22l1.54.82a3.88 3.88 0 002.92 0l1.54-.82a12.42 12.42 0 012.94-1.22l1.67-.5a4 4 0 002.06-2.07l.51-1.67a12.67 12.67 0 011.22-3l.82-1.46a3.47 3.47 0 00.28-1.48 3.52 3.52 0 00-.28-1.47zm-13.25 6.46L6 12l2.05-1.94 3.42 3.23 5.14-5.81L19 9.45z" fill-rule="evenodd"/></symbol>
    <symbol viewBox="0 0 10 6" id="z-down"><path d="M10 1.18a.73.73 0 00-.24-.42L9.39.32C9.26.17 9.08 0 8.82.11a1.22 1.22 0 00-.3.26C7.69 1.23 6.89 2 6.06 2.88c-.14.14-.29.32-.45.45a.8.8 0 01-.65.2 1.14 1.14 0 01-.57-.31c-.16-.14-.31-.3-.46-.45-.84-.85-1.64-1.64-2.47-2.49C1.34.15 1.26 0 1.05 0H1C.71.05.59.29.42.48A1.35 1.35 0 000 1.1v.08a.8.8 0 00.32.49L.6 2C1.82 3.19 3 4.39 4.25 5.63c.15.15.27.33.49.37h.62c.23 0 .32-.17.47-.32l.27-.29C7.29 4.17 8.48 3 9.68 1.75c.15-.15.29-.24.31-.48z" fill-rule="evenodd"/></symbol>
    <symbol viewBox="0 0 17 18.02" id="z-percent"><path d="M16.18 9.25a.55.55 0 010-.47l.66-1.38a1.56 1.56 0 00-.66-2.07l-1.33-.72a.53.53 0 01-.27-.38l-.26-1.51a1.54 1.54 0 00-1.74-1.28l-1.49.21a.49.49 0 01-.43-.14L9.57.44a1.51 1.51 0 00-2.14 0L6.34 1.51a.49.49 0 01-.43.14l-1.49-.21a1.54 1.54 0 00-1.74 1.28l-.26 1.51a.56.56 0 01-.27.38l-1.33.72A1.56 1.56 0 00.16 7.4l.66 1.38a.55.55 0 010 .47l-.66 1.37a1.58 1.58 0 00.66 2.08l1.33.72a.52.52 0 01.27.37l.26 1.51a1.54 1.54 0 001.52 1.3h.22l1.49-.22a.49.49 0 01.43.15l1.09 1.06a1.52 1.52 0 002.14 0l1.09-1.06a.49.49 0 01.43-.15l1.49.22a1.56 1.56 0 001.74-1.29l.26-1.51a.49.49 0 01.27-.37l1.33-.72a1.58 1.58 0 00.66-2.08zm-.92.45l.66 1.38a.53.53 0 01-.22.7l-1.33.72a1.56 1.56 0 00-.8 1.11l-.26 1.51a.52.52 0 01-.59.44l-1.49-.22a1.52 1.52 0 00-1.29.43l-1.08 1.06a.51.51 0 01-.72 0l-1.08-1.06A1.53 1.53 0 006 15.33h-.23l-1.49.22a.52.52 0 01-.59-.44l-.26-1.51a1.59 1.59 0 00-.8-1.11l-1.33-.71a.53.53 0 01-.22-.7l.66-1.38a1.59 1.59 0 000-1.38L1.08 7a.54.54 0 01.22-.71l1.33-.71a1.6 1.6 0 00.8-1.12l.26-1.56a.52.52 0 01.59-.43l1.49.21a1.52 1.52 0 001.29-.42l1.08-1.07a.51.51 0 01.72 0l1.08 1.07a1.52 1.52 0 001.29.42l1.49-.21a.52.52 0 01.59.43l.26 1.51a1.58 1.58 0 00.8 1.12l1.33.71a.54.54 0 01.22.71l-.66 1.37a1.59 1.59 0 000 1.38zm-3-4.49a.51.51 0 00-.72 0l-6.77 6.86a.53.53 0 000 .74.51.51 0 00.72 0L12.23 6a.53.53 0 000-.79zm-5.8 2.94a1.91 1.91 0 10-1.88-1.91 1.9 1.9 0 001.88 1.91zm0-2.78a.87.87 0 11-.86.87.86.86 0 01.86-.87zm4.08 4.51a1.91 1.91 0 101.88 1.9 1.89 1.89 0 00-1.88-1.9zm0 2.77a.87.87 0 11.85-.87.86.86 0 01-.85.87z"/></symbol>
    <symbol viewBox="0 0 22.01 22.02" id="z-search"><path d="M21.74 20.46l-5.29-5.3a9.27 9.27 0 10-7.17 3.4 9.17 9.17 0 005.87-2.1l5.29 5.29a.92.92 0 001.3 0 .91.91 0 000-1.29zM9.28 16.71a7.44 7.44 0 117.43-7.43 7.44 7.44 0 01-7.43 7.43z"/></symbol>
    <symbol viewBox="0 0 19.73 22" id="z-user"><path d="M19.73 21.86V22h-2a8 8 0 00-2.17-5.53A7.74 7.74 0 004.73 16 7.76 7.76 0 002 22H0v-.09a9.93 9.93 0 016-9.06A7.27 7.27 0 013.65 4a6.86 6.86 0 016.26-4 6.73 6.73 0 016.17 4 7.13 7.13 0 01.54 4.35 7.53 7.53 0 01-2.88 4.48 9.93 9.93 0 015.99 9.03zM5 6.13a5.1 5.1 0 001.94 4.94 5 5 0 005.49.18 4.92 4.92 0 002.34-4.89 5.29 5.29 0 00-1.35-2.84 4.7 4.7 0 00-4.19-1.46A4.83 4.83 0 005 6.13z" fill-rule="evenodd"/></symbol>
</svg>